# xmcd
#
# Track frame offsets:
#	150
#	12458
#	27798
#	43708
#	54455
#	71298
#	84683
#	100208
#	113973
#	127875
#
# Disc length: 1860 seconds
#
# Revision: 8
# Processed by: cddbd v1.5.2PL0 Copyright (c) Steve Scherf et al.
# Submitted via: EZCDAudioConverter 6.0.5.1
#
DISCID=7c07420a
DTITLE=Doug Stone - Faith In Me, Faith In You
DYEAR=1995
DGENRE=Country
TTITLE0=You Won't Outlive Me
TTITLE1=Faith In Me, Faith In You
TTITLE2=Sometimes I Forget
TTITLE3=Born In The Dark
TTITLE4=Down On My Knees
TTITLE5=Enough About Me (Let's Talk About You)
TTITLE6=I Do All My Crying (On The Inside)
TTITLE7=Honky Tonk Mona Lisa
TTITLE8=You're Not That Easy To Forget
TTITLE9=Look Where She Is Today
EXTD=
EXTT0=
EXTT1=
EXTT2=
EXTT3=
EXTT4=
EXTT5=
EXTT6=
EXTT7=
EXTT8=
EXTT9=
PLAYORDER=
